<svg width="26" height="39" viewBox="0 0 26 39" fill="none" xmlns="http://www.w3.org/2000/svg">
<path d="M25.9912 3.2498C25.9912 3.56207 25.8125 3.91371 25.545 4.14832L8.00062 19.4996L25.545 34.851C25.8131 35.0856 25.9912 35.4367 25.9912 35.7495C25.9912 36.0623 25.8125 36.4134 25.545 36.648L23.3131 38.6009C23.045 38.8355 22.6437 38.9914 22.2862 38.9914C21.9287 38.9914 21.5275 38.835 21.2594 38.6009L0.455619 20.3976C0.187494 20.163 0.0093689 19.8119 0.0093689 19.4991C0.0093689 19.1863 0.188119 18.8352 0.455619 18.6006L21.2594 0.397305C21.5275 0.162696 21.9287 0.00683594 22.2862 0.00683594C22.6437 0.00683594 23.045 0.163243 23.3131 0.397305L25.545 2.3502C25.8131 2.58481 25.9912 2.89707 25.9912 3.24871V3.2498Z" fill="#666666"/>
</svg>
