<svg width="69" height="60" viewBox="0 0 69 60" fill="none" xmlns="http://www.w3.org/2000/svg">
<path fill-rule="evenodd" clip-rule="evenodd" d="M6.39478 2.44605C4.16476 7.15505 3.65726 16.4691 5.36473 21.3461C5.73503 22.4039 6.12843 23.6725 6.23903 24.1655C6.50696 25.3616 9.98753 33.4608 11.3835 36.1374C12.7536 38.7639 12.7282 38.7901 10.1004 37.4541C6.32058 35.5326 3.34751 31.5826 2.05041 26.7593C1.13113 23.3408 0.00395823 23.2778 0.0772832 26.6488C0.205208 32.5289 5.17521 38.814 12.5882 42.4708C15.5287 43.9212 14.6779 42.7686 21.2467 54.2024C24.0456 59.0747 24.1807 59.2308 25.5972 59.2308C27.3561 59.2308 27.6071 58.8444 28.5953 54.6155C29.5972 50.3279 30.7228 46.6075 31.9289 43.5965L32.7948 41.4347L31.8533 40.1431C31.3354 39.4327 30.798 38.8502 30.6592 38.8488C30.1948 38.844 28.0869 43.6096 26.7646 47.6535L25.4568 51.6532L23.9027 49.3844C22.4622 47.2811 17.952 38.948 16.8384 36.332C12.847 26.9553 14.4787 15.6139 20.3027 12.2518C22.3567 11.066 21.9794 9.60861 19.8173 10.3764C15.3945 11.9471 11.3867 18.6498 10.9586 25.1924C10.8617 26.6725 9.74568 24.0611 8.62358 19.7287C7.47226 15.2835 7.37268 6.67709 8.43528 3.4703C9.38886 0.593047 7.67893 -0.265289 6.39478 2.44605ZM59.6933 1.30983C59.574 1.59997 59.6634 2.85176 59.8918 4.09178C61.1043 10.6744 60.7708 16.6257 58.8923 21.9231C57.5846 25.6113 57.0736 26.3963 57.0652 24.7304C57.0377 19.3638 53.3147 12.8507 49.0733 10.7489C45.9222 9.18753 45.6273 10.2683 48.518 12.7852C56.5554 19.7834 54.8526 33.9088 44.1036 49.4043L42.5157 51.6933L41.9635 49.7889C40.483 44.6822 39.9738 43.3696 38.0497 39.7006L35.9766 35.7474L37.6433 33.7295C38.56 32.6197 40.4344 31.032 41.8087 30.2013C43.1829 29.3706 44.2427 28.5095 44.1636 28.2878C43.6666 26.893 39.9377 28.4095 36.4521 31.4239L34.0308 33.5178L31.8846 31.5955C29.5819 29.5331 25.8581 27.5444 24.6935 27.7555C23.4517 27.9804 23.6045 28.7779 25.0178 29.4484C31.5726 32.5583 36.2416 40.8258 39.5562 55.1923C40.3933 58.8197 40.6818 59.2308 42.3925 59.2308C43.7998 59.2308 43.9577 59.0615 46.1602 55.1923C47.5179 52.8073 51.0516 46.8561 52.3433 44.7797C52.8356 43.988 54.1098 43.1056 56.201 42.1082C62.3316 39.1839 67.1378 33.2911 68.1071 27.5108C68.7914 23.4293 67.2122 22.8184 66.0997 26.7343C64.7093 31.6287 61.3194 36.0255 57.5224 37.8595C55.6436 38.767 55.6205 38.591 57.1947 35.3476C64.3238 20.6586 65.7354 10.406 61.7265 2.43362C61.0403 1.06905 60.0232 0.506903 59.6933 1.30983Z" fill="white"/>
</svg>
